# xmcd
#
# Track frame offsets:
#	150
#	16012
#	30391
#	44284
#	59876
#	76555
#	98555
#	136981
#	158317
#
# Disc length: 2319 seconds
#
# Revision: 1
# Processed by: cddbd v1.4PL0 Copyright (c) Steve Scherf et al.
# Submitted via: audiograbber 1.80.04
#
DISCID=58090d09
DTITLE=Big Wassabi - Blue Planet
DYEAR=2002
DGENRE=
TTITLE0=Yo Mama Osama
TTITLE1=Enron Blues
TTITLE2=Small Fishes
TTITLE3=Seasons Of Your Love
TTITLE4=Things That God Dont Like
TTITLE5=Junkie Woman
TTITLE6=Look At Me
TTITLE7=Country Car Wash BBQ
TTITLE8=Data Track
EXTD=http://www.bigwassabi.com/
EXTT0=
EXTT1=
EXTT2=
EXTT3=
EXTT4=
EXTT5=
EXTT6=
EXTT7=
EXTT8=
PLAYORDER=
